<?xml version="1.0" encoding="UTF-8" standalone="no"?>
<!-- Created with Inkscape (http://www.inkscape.org/) -->

<svg
   width="716.15802"
   height="788.78302"
   viewBox="0 0 189.48348 208.69884"
   version="1.1"
   id="svg1"
   inkscape:version="1.3 (0e150ed6c4, 2023-07-21)"
   sodipodi:docname="운세장.svg"
   xmlns:inkscape="http://www.inkscape.org/namespaces/inkscape"
   xmlns:sodipodi="http://sodipodi.sourceforge.net/DTD/sodipodi-0.dtd"
   xmlns="http://www.w3.org/2000/svg"
   xmlns:svg="http://www.w3.org/2000/svg">
  <sodipodi:namedview
     id="namedview1"
     pagecolor="#000000"
     bordercolor="#000000"
     borderopacity="0.25"
     inkscape:showpageshadow="2"
     inkscape:pageopacity="0.0"
     inkscape:pagecheckerboard="true"
     inkscape:deskcolor="#d1d1d1"
     inkscape:document-units="mm"
     inkscape:zoom="0.37237654"
     inkscape:cx="534.4053"
     inkscape:cy="845.91794"
     inkscape:window-width="1392"
     inkscape:window-height="1032"
     inkscape:window-x="840"
     inkscape:window-y="208"
     inkscape:window-maximized="0"
     inkscape:current-layer="layer1" />
  <defs
     id="defs1">
    <filter
       inkscape:collect="always"
       style="color-interpolation-filters:sRGB"
       id="filter2"
       y="-0.1515994"
       height="1.3031988"
       x="-inf"
       width="inf">
      <feGaussianBlur
         inkscape:collect="always"
         stdDeviation="0.68749933"
         id="feGaussianBlur2" />
    </filter>
  </defs>
  <g
     inkscape:label="Layer 1"
     inkscape:groupmode="layer"
     id="layer1">
    <g
       id="g81"
       transform="matrix(0.26458333,0,0,0.26458333,-48.133267,-153.02824)">
      <g
         id="g80"
         transform="translate(3269.6723,-809.13312)">
        <path
           style="fill:#fdf9c8;fill-opacity:1;stroke:#000000;stroke-width:0;stroke-linecap:round;stroke-linejoin:round;stroke-dasharray:none"
           d="m -2624.4153,1554.5144 c 0,0 -231.4391,-8.2657 -332.9889,24.7971 -101.5498,33.0627 -126.3468,74.3911 -129.8893,160.5904 -3.5424,86.1993 14.6406,200.5453 14.6406,221.4193 0,20.874 -8.3496,143.6131 60.1171,187.0311 68.4667,43.4179 531.0345,30.0585 574.4525,1.6699 43.4179,-28.3887 80.9911,-89.3407 60.952,-192.0408 -20.039,-102.7001 -21.7089,-210.2494 -21.7089,-234.4632 0,-24.2138 -7.2108,-126.4494 -82.8043,-149.6604 -69.7348,-21.4121 -142.7708,-19.3434 -142.7708,-19.3434 z"
           id="path31"
           sodipodi:nodetypes="cssssssssc" />
        <g
           id="g30"
           transform="matrix(0.82822569,0,0,0.82822569,-203.58183,718.6755)">
          <g
             id="g12"
             transform="translate(-2964.8763,-47.799528)"
             style="fill:#feda00;fill-opacity:1;stroke-width:7.55906;stroke-dasharray:none">
            <path
               style="fill:#feda00;fill-opacity:1;stroke:#000000;stroke-width:7.55906;stroke-linecap:square;stroke-linejoin:miter;stroke-dasharray:none"
               d="m -159.05989,929.51926 c 0,0 -5.2185,-36.73824 -48.42768,-53.85492 -43.20918,-17.11668 -57.82098,-13.35936 -57.82098,-13.35936 0,0 -3.75732,38.82564 15.02928,64.7094 18.7866,25.88376 39.03438,35.69454 47.59272,36.94698 8.55834,1.25244 43.62666,-34.4421 43.62666,-34.4421 z"
               id="path12" />
            <path
               style="fill:#feda00;fill-opacity:1;stroke:#000000;stroke-width:7.55906;stroke-linecap:square;stroke-linejoin:miter;stroke-dasharray:none"
               d="m -49.304008,926.69731 c 0,0 5.2185,-36.73824 48.42767987,-53.85492 C 42.332847,855.72571 56.944647,859.48303 56.944647,859.48303 c 0,0 3.75732,38.82564 -15.02928,64.7094 -18.786595,25.88376 -39.0343751,35.69454 -47.5927151,36.94698 -8.5583399,1.25244 -43.6266599,-34.4421 -43.6266599,-34.4421 z"
               id="path12-2" />
          </g>
          <path
             style="fill:#000000;fill-opacity:1;stroke:#000000;stroke-width:5.66929;stroke-linecap:round;stroke-linejoin:round;stroke-dasharray:none"
             d="m -3228.2556,815.60089 c -8.3495,36.7381 31.5198,85.5834 31.5198,85.5834 0,0 -1.1661,-23.71311 1.2525,-40.7043 3.3189,-23.31596 14.8205,-35.6946 14.8205,-35.6946 0,0 -26.9276,-14.1942 -47.5928,-9.1845 z"
             id="path30"
             sodipodi:nodetypes="ccscc" />
          <path
             style="fill:#000000;fill-opacity:1;stroke:#000000;stroke-width:5.66929;stroke-linecap:round;stroke-linejoin:round;stroke-dasharray:none"
             d="m -2908.4473,811.47127 c 8.3495,36.7381 -31.5198,85.5834 -31.5198,85.5834 0,0 1.1661,-23.71311 -1.2525,-40.7043 -3.3189,-23.31596 -14.8205,-35.6946 -14.8205,-35.6946 0,0 26.9276,-14.1942 47.5928,-9.1845 z"
             id="path30-6"
             sodipodi:nodetypes="ccscc" />
        </g>
      </g>
      <g
         id="g77"
         transform="translate(1491.0195,-1.4579173)">
        <path
           style="fill:#fdf9c8;stroke:#000000;stroke-width:0;stroke-linecap:round;stroke-linejoin:round;stroke-dasharray:none"
           d="m -1284.586,1169.3615 0.4175,15.0293"
           id="path1" />
        <path
           style="fill:#a0892c;fill-opacity:1;stroke:#000000;stroke-width:1.88976;stroke-linecap:round;stroke-linejoin:round;stroke-dasharray:none;filter:url(#filter2)"
           d="M -1290.8482,948.09712 V 965.2138"
           id="path2" />
        <path
           style="fill:#a0892c;fill-opacity:1;stroke:#000000;stroke-width:1.88976;stroke-linecap:round;stroke-linejoin:round;stroke-dasharray:none"
           d="m -1290.0133,949.14082 c 0,0.83496 -0.4174,12.10692 -0.6262,16.07298"
           id="path3" />
        <path
           style="fill:#a0892c;fill-opacity:1;stroke:#000000;stroke-width:1.88976;stroke-linecap:round;stroke-linejoin:round;stroke-dasharray:none"
           d="m -1293.3531,993.60245 0.6262,16.49045"
           id="path10" />
        <path
           style="fill:#a0892c;fill-opacity:1;stroke:#000000;stroke-width:1.88976;stroke-linecap:round;stroke-linejoin:round;stroke-dasharray:none"
           d="m -1289.387,1037.0204 c -0.2088,2.0874 0.6262,15.8642 0.6262,15.8642"
           id="path11" />
        <path
           style="fill:#a0892c;fill-opacity:1;stroke:#000000;stroke-width:1.88976;stroke-linecap:round;stroke-linejoin:round;stroke-dasharray:none"
           d="m -1286.6734,1078.7684 c 0,0 0.4175,21.9177 1.8786,21.9177"
           id="path17" />
        <path
           style="fill:#a0892c;fill-opacity:1;stroke:#000000;stroke-width:1.88976;stroke-linecap:round;stroke-linejoin:round;stroke-dasharray:none"
           d="m -1283.9598,1126.9873 c -0.4175,15.4468 -0.835,15.4468 -0.835,15.4468"
           id="path19" />
        <path
           style="fill:#a0892c;fill-opacity:1;stroke:#000000;stroke-width:1.88976;stroke-linecap:round;stroke-linejoin:round;stroke-dasharray:none"
           d="m -1282.4986,1169.9877 v 15.2381"
           id="path20" />
        <path
           style="fill:#a0892c;fill-opacity:1;stroke:#000000;stroke-width:1.88976;stroke-linecap:round;stroke-linejoin:round;stroke-dasharray:none"
           d="m -1276.6539,1212.5707 c 0,17.3254 -0.2087,18.1604 -0.2087,18.1604"
           id="path21" />
        <path
           style="fill:none;fill-opacity:1;stroke:#000000;stroke-width:1.88976;stroke-linecap:round;stroke-linejoin:round;stroke-dasharray:none"
           d="m -1271.8529,1252.6489 c 0,0 1.4612,14.403 7.3059,18.1603"
           id="path22" />
        <path
           style="fill:none;fill-opacity:1;stroke:#000000;stroke-width:1.88976;stroke-linecap:round;stroke-linejoin:round;stroke-dasharray:none"
           d="m -1261.6247,1289.5958 c 0,0 5.4273,16.6992 15.4468,20.039"
           id="path32" />
        <path
           style="fill:none;fill-opacity:1;stroke:#000000;stroke-width:1.88976;stroke-linecap:round;stroke-linejoin:round;stroke-dasharray:none"
           d="m -1233.8622,1324.4554 c 0,0 9.1846,9.1845 16.4905,10.2282"
           id="path35" />
        <path
           style="fill:none;fill-opacity:1;stroke:#000000;stroke-width:1.88976;stroke-linecap:round;stroke-linejoin:round;stroke-dasharray:none"
           d="m -1189.4006,1346.7905 c 0,0 14.8206,6.2622 32.9809,5.4273"
           id="path36" />
        <path
           style="fill:none;fill-opacity:1;stroke:#000000;stroke-width:1.88976;stroke-linecap:round;stroke-linejoin:round;stroke-dasharray:none"
           d="m -1131.5796,1354.0964 c 29.6411,0 25.8837,-0.6262 25.8837,-0.6262"
           id="path37" />
        <path
           style="fill:none;fill-opacity:1;stroke:#000000;stroke-width:1.88976;stroke-linecap:round;stroke-linejoin:round;stroke-dasharray:none"
           d="m -1078.1422,1355.9751 c 1.6699,-0.6262 17.1167,0.6262 24.2139,-3.1311"
           id="path38" />
        <path
           style="fill:none;fill-opacity:1;stroke:#000000;stroke-width:1.88976;stroke-linecap:round;stroke-linejoin:round;stroke-dasharray:none"
           d="m -1029.5057,1356.6013 c 2.5049,-0.4175 12.7332,0.2087 20.2478,-1.0437"
           id="path39" />
        <path
           style="fill:none;fill-opacity:1;stroke:#000000;stroke-width:1.88976;stroke-linecap:round;stroke-linejoin:round;stroke-dasharray:none"
           d="m -983.16545,1359.1062 c 8.3496,-0.2087 22.33519,-2.5048 26.92747,-2.7136"
           id="path40" />
        <path
           style="fill:none;fill-opacity:1;stroke:#000000;stroke-width:1.88976;stroke-linecap:round;stroke-linejoin:round;stroke-dasharray:none"
           d="m -932.02414,1356.3926 c 7.3059,-0.2088 16.28172,-1.0437 16.28172,-1.0437"
           id="path41" />
        <path
           style="fill:none;fill-opacity:1;stroke:#000000;stroke-width:1.88976;stroke-linecap:round;stroke-linejoin:round;stroke-dasharray:none"
           d="m -896.12086,1355.7664 c 9.81078,-0.6263 17.11668,-1.2525 17.11668,-1.2525"
           id="path42" />
        <path
           style="fill:none;fill-opacity:1;stroke:#000000;stroke-width:1.88976;stroke-linecap:round;stroke-linejoin:round;stroke-dasharray:none"
           d="m -857.7127,1352.4265 17.11668,-1.6699"
           id="path43" />
        <path
           style="fill:none;fill-opacity:1;stroke:#000000;stroke-width:1.88976;stroke-linecap:round;stroke-linejoin:round;stroke-dasharray:none"
           d="m -822.43564,1349.5042 16.90794,-2.0874"
           id="path44" />
        <path
           style="fill:none;fill-opacity:1;stroke:#000000;stroke-width:1.88976;stroke-linecap:round;stroke-linejoin:round;stroke-dasharray:none"
           d="m -786.53236,1347.6255 c 13.35936,-0.2087 15.86424,-2.9224 15.86424,-2.9224"
           id="path45" />
        <path
           style="fill:none;fill-opacity:1;stroke:#000000;stroke-width:1.88976;stroke-linecap:round;stroke-linejoin:round;stroke-dasharray:none"
           d="m -750.21159,1343.6594 c 9.3933,-0.4174 12.31566,-2.5048 12.31566,-2.5048"
           id="path46" />
        <path
           style="fill:none;fill-opacity:1;stroke:#000000;stroke-width:1.88976;stroke-linecap:round;stroke-linejoin:round;stroke-dasharray:none"
           d="m -715.14327,1339.0672 c 8.55834,-1.67 9.81078,-3.1311 9.81078,-3.1311"
           id="path47" />
        <path
           style="fill:none;fill-opacity:1;stroke:#000000;stroke-width:1.88976;stroke-linecap:round;stroke-linejoin:round;stroke-dasharray:none"
           d="m -681.45836,1335.8496 8.14086,-6.4709"
           id="path48" />
        <path
           style="fill:none;fill-opacity:1;stroke:#000000;stroke-width:1.88976;stroke-linecap:round;stroke-linejoin:round;stroke-dasharray:none"
           d="m -646.90012,1319.0639 c 2.92236,-5.6359 10.437,-16.6992 10.437,-16.6992"
           id="path49" />
        <path
           style="fill:none;fill-opacity:1;stroke:#000000;stroke-width:1.88976;stroke-linecap:round;stroke-linejoin:round;stroke-dasharray:none"
           d="m -626.86723,1291.4176 7.51464,-17.5341"
           id="path50" />
        <path
           style="fill:none;fill-opacity:1;stroke:#000000;stroke-width:1.88976;stroke-linecap:round;stroke-linejoin:round;stroke-dasharray:none"
           d="m -613.28429,1253.7431 c 1.46118,-9.1845 2.71362,-8.1408 2.50488,-16.0729"
           id="path51" />
        <path
           style="fill:none;fill-opacity:1;stroke:#000000;stroke-width:1.88976;stroke-linecap:round;stroke-linejoin:round;stroke-dasharray:none"
           d="m -613.06941,1217.998 c 0.20874,-5.2185 0.62622,-9.3933 0.62622,-9.3933"
           id="path52" />
        <path
           style="fill:none;fill-opacity:1;stroke:#000000;stroke-width:1.88976;stroke-linecap:round;stroke-linejoin:round;stroke-dasharray:none"
           d="m -608.68587,1190.653 -2.92236,-11.8982"
           id="path53" />
        <path
           style="fill:none;fill-opacity:1;stroke:#000000;stroke-width:1.88976;stroke-linecap:round;stroke-linejoin:round;stroke-dasharray:none"
           d="m -614.84063,1161.2713 c 0,0 2.29614,-5.0097 -1.87866,-12.9419"
           id="path54" />
        <path
           style="fill:none;fill-opacity:1;stroke:#000000;stroke-width:1.88976;stroke-linecap:round;stroke-linejoin:round;stroke-dasharray:none"
           d="m -616.82673,1124.4824 -0.62622,-10.6457"
           id="path55" />
        <path
           style="fill:none;fill-opacity:1;stroke:#000000;stroke-width:1.88976;stroke-linecap:round;stroke-linejoin:round;stroke-dasharray:none"
           d="m -619.74909,1086.0743 c 0.20874,-8.3496 0.62622,-3.9661 0.20874,-10.8545"
           id="path56" />
        <path
           style="fill:none;fill-opacity:1;stroke:#000000;stroke-width:1.88976;stroke-linecap:round;stroke-linejoin:round;stroke-dasharray:none"
           d="m -623.78063,1048.8827 c -0.41748,-13.1506 0.83496,-12.3156 -0.41748,-16.2817"
           id="path57" />
        <path
           style="fill:none;fill-opacity:1;stroke:#000000;stroke-width:1.88976;stroke-linecap:round;stroke-linejoin:round;stroke-dasharray:none"
           d="m -625.58767,1011.4466 -1.0437,-13.56805"
           id="path58" />
        <path
           style="fill:none;fill-opacity:1;stroke:#000000;stroke-width:1.88976;stroke-linecap:round;stroke-linejoin:round;stroke-dasharray:none"
           d="m -623.92389,976.06829 c -1.25244,-18.99535 -1.66992,-12.94189 -2.92236,-21.08275"
           id="path59" />
        <path
           style="fill:none;fill-opacity:1;stroke:#000000;stroke-width:1.88976;stroke-linecap:round;stroke-linejoin:round;stroke-dasharray:none"
           d="m -632.27349,929.93674 c 0,0 -0.20874,-13.35936 -2.0874,-17.11668"
           id="path60" />
        <path
           style="fill:none;fill-opacity:1;stroke:#000000;stroke-width:1.88976;stroke-linecap:round;stroke-linejoin:round;stroke-dasharray:none"
           d="m -636.23955,891.94606 c 0,0 1.66992,-15.6555 -1.87866,-19.20408"
           id="path61" />
        <path
           style="fill:none;fill-opacity:1;stroke:#000000;stroke-width:1.88976;stroke-linecap:round;stroke-linejoin:round;stroke-dasharray:none"
           d="m -644.38041,847.90192 c 0,0 0.41748,-10.85448 -3.33984,-12.94188"
           id="path62" />
        <path
           style="fill:none;fill-opacity:1;stroke:#000000;stroke-width:1.88976;stroke-linecap:round;stroke-linejoin:round;stroke-dasharray:none"
           d="m -656.27859,815.54722 c 0,0 -1.66992,-9.81078 -8.3496,-10.85448"
           id="path63" />
        <path
           style="fill:none;fill-opacity:1;stroke:#000000;stroke-width:1.88976;stroke-linecap:round;stroke-linejoin:round;stroke-dasharray:none"
           d="m -679.44873,792.86004 c -5.84472,-6.2622 -8.14086,-6.2622 -8.14086,-6.2622"
           id="path64" />
        <path
           style="fill:none;fill-opacity:1;stroke:#000000;stroke-width:1.88976;stroke-linecap:round;stroke-linejoin:round;stroke-dasharray:none"
           d="m -705.12375,779.85268 c 0,0 -20.24778,-2.29614 -23.79636,-3.75732"
           id="path65" />
        <path
           style="fill:none;fill-opacity:1;stroke:#000000;stroke-width:1.88976;stroke-linecap:round;stroke-linejoin:round;stroke-dasharray:none"
           d="m -752.09025,770.66812 c 0,0 -18.36913,0 -22.12645,-1.87866"
           id="path66" />
        <path
           style="fill:none;fill-opacity:1;stroke:#000000;stroke-width:1.88976;stroke-linecap:round;stroke-linejoin:round;stroke-dasharray:none"
           d="m -795.29944,764.61466 c -8.76708,-0.20874 -15.02928,0 -15.02928,0"
           id="path67" />
        <path
           style="fill:none;fill-opacity:1;stroke:#000000;stroke-width:1.88976;stroke-linecap:round;stroke-linejoin:round;stroke-dasharray:none"
           d="m -832.03768,761.48356 c -7.93212,-1.66992 -11.68944,-2.29614 -11.68944,-2.29614"
           id="path68" />
        <path
           style="fill:none;fill-opacity:1;stroke:#000000;stroke-width:1.88976;stroke-linecap:round;stroke-linejoin:round;stroke-dasharray:none"
           d="m -863.34868,758.97868 c -9.18456,-0.83496 -10.85448,-0.83496 -10.85448,-0.83496"
           id="path69" />
        <path
           style="fill:none;fill-opacity:1;stroke:#000000;stroke-width:1.88976;stroke-linecap:round;stroke-linejoin:round;stroke-dasharray:none"
           d="m -1077.7247,768.16324 -11.0632,3.96606"
           id="path70" />
        <path
           style="fill:none;fill-opacity:1;stroke:#000000;stroke-width:1.88976;stroke-linecap:round;stroke-linejoin:round;stroke-dasharray:none"
           d="m -1110.0794,775.67788 c -8.1408,0.41748 -10.2282,2.92236 -10.2282,2.92236"
           id="path71" />
        <path
           style="fill:none;fill-opacity:1;stroke:#000000;stroke-width:1.88976;stroke-linecap:round;stroke-linejoin:round;stroke-dasharray:none"
           d="m -1146.6089,782.77504 c -7.5146,2.92236 -10.6457,3.75732 -11.2719,5.2185"
           id="path72" />
        <path
           style="fill:none;fill-opacity:1;stroke:#000000;stroke-width:1.88976;stroke-linecap:round;stroke-linejoin:round;stroke-dasharray:none"
           d="m -1183.1384,791.33338 c 0,0 -13.1506,3.75732 -14.1943,5.63598"
           id="path73" />
        <path
           style="fill:none;fill-opacity:1;stroke:#000000;stroke-width:1.88976;stroke-linecap:round;stroke-linejoin:round;stroke-dasharray:none"
           d="m -1224.0514,805.73644 c 0,0 -14.1943,10.22826 -15.6555,14.19432"
           id="path74" />
        <path
           style="fill:none;fill-opacity:1;stroke:#000000;stroke-width:1.88976;stroke-linecap:round;stroke-linejoin:round;stroke-dasharray:none"
           d="m -1260.1364,836.06308 c 0,0 -8.5583,8.3496 -8.9758,12.31566"
           id="path75" />
        <path
           style="fill:none;fill-opacity:1;stroke:#000000;stroke-width:1.88976;stroke-linecap:round;stroke-linejoin:round;stroke-dasharray:none"
           d="m -1277.9063,871.48954 c 0,0 -1.8787,6.05346 -1.4612,10.437"
           id="path76" />
        <path
           style="fill:none;fill-opacity:1;stroke:#000000;stroke-width:1.88976;stroke-linecap:round;stroke-linejoin:round;stroke-dasharray:none"
           d="m -1287.9259,910.9414 c 0,0 -2.9223,8.14086 -0.8349,12.94188"
           id="path77" />
        <g
           id="g79"
           transform="translate(1780.6642,-807.67527)">
          <g
             id="g15"
             transform="matrix(0.82822569,0,0,0.82822569,-1961.2979,612.99687)"
             style="fill:#000000"
             inkscape:label="얼굴">
            <path
               style="fill:#feda00;fill-opacity:1;stroke:#000000;stroke-width:7.55906;stroke-linecap:square;stroke-linejoin:miter;stroke-dasharray:none"
               d="m -3150.8408,878.35087 c 0,0 23.3788,-25.4662 77.2338,-26.3012 53.8549,-0.835 110.2147,30.476 122.3216,68.4667 12.1069,37.9907 7.0972,60.9521 11.6894,70.5541 4.5923,9.60203 12.4022,43.62063 1.5477,58.23243 -10.8545,14.6118 -31.1887,49.0601 -100.4904,56.9922 -69.3017,7.9321 -90.5932,-1.2524 -139.4383,-30.4761 -48.8452,-29.2236 -19.6216,-86.41843 -20.0391,-96.85543 -0.4175,-10.437 0.7317,-45.588 16.2817,-68.0492 15.0293,-21.709 30.8936,-32.5635 30.8936,-32.5635 z"
               id="path13"
               sodipodi:nodetypes="cssssssssc"
               transform="translate(2122.267,129.59642)" />
          </g>
          <g
             id="g78"
             inkscape:label="눈">
            <g
               id="g17"
               transform="matrix(0.82822569,0,0,0.82822569,-2658.398,680.0235)"
               style="fill:#ffffff">
              <g
                 id="g22">
                <g
                   id="g23">
                  <path
                     style="fill:#000000;stroke:#000000;stroke-width:3.77953;stroke-linecap:square;stroke-linejoin:miter;stroke-dasharray:none"
                     d="m -186.71586,996.64361 c 0,0 -11.53824,5.95029 -14.16974,13.13649 -3.13897,8.572 -3.83764,20.369 2.65682,27.8967 6.49447,7.5276 18.31074,11.5399 27.15867,8.8561 9.83534,-2.9833 18.96032,-7.2549 20.22141,-23.0259 1.2633,-15.7986 -9.2989,-26.27299 -15.94096,-27.74899 -6.64207,-1.4761 -11.49628,-1.3031 -19.9262,0.8856 z"
                     id="path15"
                     sodipodi:nodetypes="csssssc"
                     transform="translate(0.9409881,0.0631364)" />
                  <path
                     style="fill:#000000;stroke:#000000;stroke-width:3.77953;stroke-linecap:square;stroke-linejoin:miter;stroke-dasharray:none"
                     d="m -25.390667,996.64357 c 0,0 11.53824,5.95033 14.16974,13.13653 3.1389703,8.572 3.8376403,20.369 -2.65682,27.8967 -6.49447,7.5276 -18.31074,11.5399 -27.15867,8.8561 -9.83534,-2.9833 -18.96032,-7.2549 -20.22141,-23.0259 -1.2633,-15.7986 9.2989,-26.27303 15.94096,-27.74904 6.64207,-1.47602 11.49628,-1.30309 19.9262,0.88561 z"
                     id="path15-1"
                     sodipodi:nodetypes="csssssc"
                     transform="translate(0.9409881,0.0631364)" />
                  <circle
                     style="fill:#ffffff;stroke:#000000;stroke-width:4.20513;stroke-linecap:square;stroke-linejoin:miter;stroke-dasharray:none"
                     id="path16"
                     cx="-169.4465"
                     cy="1012.8417"
                     r="12.480923" />
                  <circle
                     style="fill:#ffffff;stroke:#000000;stroke-width:4.20513;stroke-linecap:square;stroke-linejoin:miter;stroke-dasharray:none"
                     id="path16-9"
                     cx="-40.778133"
                     cy="1013.4986"
                     r="12.480923" />
                </g>
              </g>
            </g>
            <g
               id="g28"
               transform="matrix(0.82822569,0,0,0.82822569,-912.69484,800.52767)"
               style="stroke-width:5.66929;stroke-dasharray:none">
              <path
                 style="fill:#ef869a;fill-opacity:1;stroke:#000000;stroke-width:5.66929;stroke-linecap:round;stroke-linejoin:round;stroke-dasharray:none"
                 d="m -2238.0803,929.78741 c 0,0 1.3568,19.0997 3.2355,24.527 1.8787,5.4272 6.4709,19.5172 12.3157,23.9007 5.8447,4.3836 14.9249,4.5923 20.4565,-0.8349 5.5316,-5.4273 12.6288,-22.8571 13.3593,-30.5805 0.7306,-7.7233 1.0437,-17.6385 1.0437,-17.6385 l -24.9444,-5.8447 z"
                 id="path28" />
              <path
                 style="fill:#feda00;fill-opacity:1;stroke:#000000;stroke-width:5.66929;stroke-linecap:round;stroke-linejoin:round;stroke-dasharray:none"
                 d="m -2255.0404,921.70625 c 0.4175,0.5218 6.1578,11.3763 18.2647,10.7501 12.1069,-0.6262 17.6386,-1.1481 23.4833,-10.437 0,0 4.1748,10.2282 21.2915,10.7501 17.1166,0.5218 21.2914,-11.4807 21.2914,-11.4807"
                 id="path27" />
            </g>
            <path
               style="fill:#000000;fill-opacity:1;stroke:#000000;stroke-width:3.1303;stroke-linecap:round;stroke-linejoin:round;stroke-dasharray:none"
               d="m -2751.051,1549.0303 c 0,0 4.9272,7.0882 11.3672,0 6.4398,-7.0882 -3.1119,-6.6992 -3.8467,-6.6992 -0.7347,0 -4.3221,0.043 -4.9704,0.1297 -0.6483,0.086 -8.9252,0.1945 -2.5501,6.5695 z"
               id="path29" />
            <g
               id="g19"
               transform="matrix(0.82822569,0,0,0.82822569,-2658.2515,681.5898)"
               style="stroke-width:5.66929;stroke-dasharray:none">
              <circle
                 style="fill:#ff0000;stroke:#000000;stroke-width:5.66929;stroke-linecap:square;stroke-linejoin:miter;stroke-dasharray:none"
                 id="path18"
                 cx="-205.60892"
                 cy="1084.7709"
                 r="31.32432" />
              <circle
                 style="fill:#ff0000;stroke:#000000;stroke-width:5.66929;stroke-linecap:square;stroke-linejoin:miter;stroke-dasharray:none"
                 id="path18-1"
                 cx="-4.9693789"
                 cy="1084.7709"
                 r="31.32432" />
            </g>
          </g>
        </g>
      </g>
    </g>
  </g>
</svg>
