<?xml version="1.0" encoding="UTF-8" standalone="no"?>
<!-- Created with Inkscape (http://www.inkscape.org/) -->

<svg
   width="143"
   height="192"
   viewBox="0 0 37.835416 50.8"
   version="1.1"
   id="svg1"
   sodipodi:docname="weather.svg"
   inkscape:version="1.3 (0e150ed6c4, 2023-07-21)"
   xmlns:inkscape="http://www.inkscape.org/namespaces/inkscape"
   xmlns:sodipodi="http://sodipodi.sourceforge.net/DTD/sodipodi-0.dtd"
   xmlns="http://www.w3.org/2000/svg"
   xmlns:svg="http://www.w3.org/2000/svg">
  <sodipodi:namedview
     id="namedview1"
     pagecolor="#000000"
     bordercolor="#000000"
     borderopacity="0.25"
     inkscape:showpageshadow="2"
     inkscape:pageopacity="0.0"
     inkscape:pagecheckerboard="true"
     inkscape:deskcolor="#d1d1d1"
     inkscape:document-units="mm"
     inkscape:zoom="2.8970539"
     inkscape:cx="149.2896"
     inkscape:cy="245.93951"
     inkscape:window-width="1920"
     inkscape:window-height="991"
     inkscape:window-x="-9"
     inkscape:window-y="-9"
     inkscape:window-maximized="1"
     inkscape:current-layer="layer1" />
  <defs
     id="defs1" />
  <g
     inkscape:label="Layer 1"
     inkscape:groupmode="layer"
     id="layer1">
    <path
       d="m 214.85947,213.5697 q -1.376,0 -1.504,-1.152 -0.064,-0.544 -0.096,-1.312 -0.032,-0.768 -0.032,-1.6 0,-0.832 0,-1.696 0.032,-0.864 0.064,-1.6 0.032,-0.736 0.384,-0.96 0.352,-0.256 1.088,-0.256 l 14.4,0.032 q 0.416,0 0.512,-0.096 0.128,-0.096 0.128,-0.352 0,-0.16 0,-0.352 0,-0.224 -0.032,-0.384 -0.032,-0.192 -0.128,-0.224 -0.064,-0.064 -0.352,-0.096 -1.312,-0.064 -3.008,-0.064 -1.664,-0.032 -3.488,0 -1.792,0 -3.648,0.064 -1.856,0.032 -3.488,0.064 -0.544,0.032 -1.056,-0.032 -0.48,-0.064 -0.864,-0.256 -0.384,-0.192 -0.64,-0.512 -0.224,-0.352 -0.224,-0.896 0,-1.056 0.64,-1.504 0.64,-0.448 1.952,-0.48 1.792,-0.032 3.968,-0.032 2.208,-0.032 4.416,0 2.24,0.032 4.32,0.128 2.08,0.064 3.648,0.192 0.8,0.064 1.28,0.16 0.512,0.096 0.768,0.288 0.288,0.192 0.384,0.544 0.096,0.32 0.128,0.832 0.032,0.48 0.032,1.12 0,0.608 -0.032,1.28 0,0.64 -0.064,1.248 -0.032,0.608 -0.064,1.088 -0.064,0.512 -0.192,0.832 -0.096,0.288 -0.32,0.48 -0.224,0.16 -0.608,0.224 -0.352,0.064 -0.896,0.096 -1.504,0.064 -3.552,0.128 -2.016,0.032 -4.096,0.032 -2.048,0 -3.904,0 -1.856,-0.032 -3.04,-0.064 -0.256,0 -0.288,0.256 -0.064,0.416 0,0.832 0.032,0.416 0.48,0.416 1.344,0 3.328,0 1.984,0 4.128,0 2.144,0 4.192,0 2.048,-0.032 3.52,-0.032 0.704,0 1.12,0.16 0.416,0.16 0.64,0.416 0.256,0.224 0.32,0.512 0.096,0.32 0.096,0.608 0,0.64 -0.448,1.152 -0.448,0.544 -1.504,0.608 -1.984,0.096 -4.256,0.128 -2.24,0.032 -4.608,0.032 -2.368,0.032 -4.8,0 -2.4,0 -4.704,0 z m -3.648,-17.92 q -0.032,-0.608 -0.064,-1.28 0,-0.704 0,-1.408 0,-0.736 0,-1.408 0.032,-0.672 0.064,-1.248 0.032,-0.672 0.128,-1.248 0.096,-0.576 0.352,-1.024 0.288,-0.448 0.736,-0.672 0.48,-0.256 1.248,-0.256 1.184,0.032 1.76,0.768 0.576,0.704 0.48,2.464 -0.064,0.896 -0.064,1.728 0,0.832 0,1.12 0,0.672 0.192,0.864 0.224,0.16 0.96,0.192 0.416,0.032 1.312,0.064 0.928,0 2.016,0 1.12,-0.032 2.304,-0.064 1.216,-0.032 2.272,-0.096 1.536,-0.096 2.176,0.352 0.672,0.448 0.736,1.504 0.064,1.088 -0.576,1.568 -0.64,0.48 -1.952,0.576 -0.928,0.064 -2.304,0.128 -1.376,0.032 -2.912,0.064 -1.504,0 -3.04,0 -1.504,-0.032 -2.688,-0.096 -0.928,-0.032 -1.536,-0.192 -0.576,-0.192 -0.928,-0.48 -0.352,-0.32 -0.512,-0.8 -0.128,-0.48 -0.16,-1.12 z m 18.464,-5.792 q -0.096,-1.792 0.48,-2.528 0.576,-0.768 1.696,-0.864 0.576,-0.032 1.056,0.096 0.512,0.128 0.864,0.544 0.384,0.416 0.576,1.152 0.224,0.704 0.224,1.824 0,0.32 0,0.576 0,0.224 0.032,0.48 0.736,0.064 1.344,0.032 0.64,-0.032 1.376,0 0.736,0.032 1.056,0.512 0.352,0.48 0.352,1.28 0,0.736 -0.352,1.344 -0.352,0.608 -1.12,0.768 -0.64,0.128 -1.28,0.128 -0.64,0 -1.376,-0.064 0,0.896 -0.096,1.952 -0.192,2.24 -2.4,2.24 -2.24,0 -2.208,-2.112 0,-1.024 0,-1.792 0,-0.8 -0.032,-1.6 -0.032,-0.8 -0.096,-1.728 -0.032,-0.928 -0.096,-2.24 z m 10.784,18.688 q -1.024,-0.384 -1.184,-1.248 -0.16,-0.896 0.288,-2.784 0.768,-3.36 1.824,-6.72 1.088,-3.392 2.496,-6.976 0.16,-0.416 0.448,-0.8 0.288,-0.416 0.672,-0.64 0.384,-0.256 0.864,-0.32 0.512,-0.064 1.12,0.128 0.928,0.288 1.28,1.152 0.384,0.832 -0.096,2.048 -0.416,1.024 -0.8,2.048 -0.384,1.024 -0.736,2.048 0.448,0.832 0.896,1.632 0.48,0.8 0.896,1.504 0.352,0.672 0.512,1.344 0.704,-2.496 1.536,-4.992 0.864,-2.528 1.888,-5.152 0.16,-0.416 0.448,-0.8 0.288,-0.416 0.672,-0.64 0.384,-0.256 0.864,-0.32 0.512,-0.064 1.12,0.128 0.928,0.288 1.28,1.152 0.384,0.832 -0.096,2.048 -0.544,1.344 -1.024,2.624 -0.448,1.28 -0.896,2.592 0.832,1.632 1.664,3.072 0.864,1.44 1.824,2.944 1.056,1.632 1.056,2.592 0.032,0.96 -0.608,1.472 -0.672,0.544 -1.6,0.352 -0.928,-0.224 -1.76,-1.312 -0.64,-0.832 -1.216,-1.728 -0.544,-0.928 -1.056,-1.952 -0.224,0.736 -0.448,1.44 -0.192,0.704 -0.384,1.408 -0.544,1.888 -1.376,2.464 -0.832,0.544 -1.824,0.192 -1.024,-0.384 -1.216,-1.248 -0.192,-0.896 0.256,-2.784 l 0.288,-1.184 q -0.544,0.512 -1.28,0.416 -0.704,-0.128 -1.184,-0.864 -0.16,-0.256 -0.352,-0.576 -0.16,-0.32 -0.48,-0.96 -0.352,1.152 -0.672,2.304 -0.32,1.12 -0.64,2.24 -0.544,1.888 -1.408,2.464 -0.864,0.544 -1.856,0.192 z m 20.48,0.896 q 0.064,-2.784 0.064,-5.152 0.032,-2.368 0.032,-4.608 0,-2.272 -0.032,-4.544 0,-2.272 -0.032,-4.896 -0.064,-2.72 2.272,-2.72 0.544,0 0.96,0.192 0.416,0.16 0.704,0.608 0.32,0.416 0.48,1.152 0.192,0.704 0.288,1.824 0.064,0.896 0.096,2.272 0.064,1.344 0.096,2.976 0.032,1.6 0.032,3.392 0.032,1.76 0,3.488 0,1.696 -0.032,3.264 -0.032,1.568 -0.096,2.752 -0.064,1.536 -0.672,2.432 -0.608,0.896 -1.824,0.896 -1.216,0 -1.792,-0.864 -0.576,-0.832 -0.544,-2.464 z"
       id="path2"
       style="font-size:32px;font-family:KCC-Ganpan;-inkscape-font-specification:'KCC-Ganpan, Normal';white-space:pre;inline-size:134.079;stroke-width:0.148156;paint-order:stroke markers fill"
       transform="matrix(0.24806088,0,0,0.24806088,-40.254975,-5.59989)"
       aria-label="날씨" />
    <g
       id="g29"
       transform="matrix(0.24806088,0,0,0.24806088,-77.281653,-5.55944)">
      <circle
         style="display:inline;fill:#000000;fill-opacity:1;stroke-width:0.824471;paint-order:stroke markers fill"
         id="path69-4"
         cx="387.80545"
         cy="104.50145"
         r="68.319061" />
      <g
         id="g14"
         transform="matrix(0.59850615,0,0,0.59850615,300.70905,-38.832042)">
        <g
           inkscape:label="Layer 1"
           id="layer1-8">
          <path
             style="opacity:0.99;fill:#ffffff;stroke-width:0.264583;paint-order:stroke markers fill"
             d="m 72.969315,283.82183 103.931735,6.21033 h 26.30259 c 0,0 25.02398,-3.28782 27.21586,-25.20665 2.19189,-21.91882 -9.68081,-35.61808 -22.8321,-37.6273 0,0 -4.38376,-13.51661 -19.54428,-20.09225 -15.16051,-6.57565 -22.64944,-0.73063 -22.64944,-0.73063 0,0 -17.16974,-24.1107 -39.45388,-23.38007 -22.28413,0.73062 -39.636535,15.52583 -43.472325,24.1107 -3.83579,8.58487 -7.12362,20.27491 -6.39299,23.01476 0,0 -14.97786,10.41144 -15.52583,20.82288 -0.54797,10.41144 -0.73063,21.00554 12.42066,32.87823 z"
             id="path7-9" />
          <path
             style="opacity:0.99;fill:#000000;stroke-width:0.227891;paint-order:stroke markers fill"
             d="m 79.966735,277.47767 92.207455,5.19309 h 23.33546 c 0,0 24.02766,-2.38398 25.97228,-20.71255 1.94463,-18.32857 -9.38205,-27.30777 -21.04978,-28.98789 0,0 -0.0405,-12.38019 -15.8156,-18.91202 -13.42547,-5.55893 -20.82505,0.11966 -20.82505,0.11966 0,0 -17.05943,-21.62267 -36.82976,-21.01172 -19.77032,0.61095 -31.877412,8.96429 -38.568305,20.16143 -4.07512,6.81968 -5.2241,19.51112 -4.57588,21.80219 0,0 -14.01888,7.61013 -14.50503,16.3162 -0.48616,8.70607 -1.01353,16.10363 10.65421,26.03161 z"
             id="path7-1"
             sodipodi:nodetypes="cccscscsscsc" />
          <path
             style="opacity:0.99;fill:#000000;stroke-width:0.264583;paint-order:stroke markers fill"
             d="m 79.948735,277.2374 c 0,0 -4.32679,3.90702 -5.03716,6.68391 l 14.26854,0.90513 5.593864,-8.24238 c 0,0 -12.032514,-0.11417 -12.192344,-0.0228 -0.15982,0.0913 -2.6329,0.67618 -2.6329,0.67618 z"
             id="path8-30"
             sodipodi:nodetypes="ccccscc" />
          <path
             style="opacity:0.99;fill:#000000;stroke-width:0.296759;paint-order:stroke markers fill"
             d="m 185.21903,290.07245 c 0,0 1.29985,-6.90993 -0.56869,-7.94321 -1.86855,-1.03325 -18.29957,-0.45204 -18.19802,-0.0323 0.10154,0.41976 5.7275,8.04008 7.25077,8.02394 1.52327,-0.0161 11.51594,-0.0485 11.51594,-0.0485 z"
             id="path9-8" />
          <path
             style="opacity:0.99;fill:#ffffff;stroke-width:0.264583;paint-order:stroke markers fill"
             d="m 150.0944,180.40446 c 0,0 14.33652,6.58705 17.82378,14.724 0,0 17.43632,-2.19569 27.76895,5.8121 10.33263,8.00779 10.97842,8.65358 15.75726,15.11148 0,0 9.04105,-2.19569 11.10758,-8.26611 2.06653,-6.07042 2.06652,-13.1741 -4.90801,-18.98621 0,0 -0.25831,-7.23284 -6.07041,-11.36589 -4.4271,-3.14816 -12.01168,-5.03716 -17.43631,-2.58316 0,0 -10.72011,-15.24063 -23.24842,-11.75337 -12.52832,3.48727 -18.21126,7.23285 -20.79442,17.30716 z"
             id="path10"
             sodipodi:nodetypes="ccscscscsc" />
        </g>
        <path
           style="opacity:0.99;fill:#ffffff;stroke-width:0.147381;paint-order:stroke markers fill"
           d="m 98.320437,309.70885 51.454803,-0.37343 10.3957,0.19345 c 0,0 14.19304,-3.41487 15.83715,-13.07371 1.11596,-6.55603 -3.4581,-17.90599 -8.26908,-17.76784 0,0 -2.34518,-10.23737 -10.79008,-13.9002 -8.44488,-3.66285 -12.61646,-0.40698 -12.61646,-0.40698 0,0 -10.04771,-12.94684 -22.46069,-12.53986 -12.41298,0.40697 -21.59523,8.16478 -23.731885,12.94684 -2.136659,4.78205 -4.25825,9.84296 -3.85126,11.36915 0,0 -9.39622,5.71121 -9.80904,13.24327 -0.45069,8.22331 2.35617,15.34009 13.840842,20.30931 z"
           id="path7-0"
           sodipodi:nodetypes="cccscscsscsc" />
      </g>
    </g>
  </g>
</svg>
